# MagicaVoxel @ Ephtracy

# group
o 

# material
mtllib electric fence.mtl
usemtl palette

# normals
vn -1 0 0
vn 1 0 0
vn 0 0 1
vn 0 0 -1
vn 0 -1 0
vn 0 1 0

# texcoords
vt 0.705078 0.5
vt 0.728516 0.5

# verts
v -2 0 -1.9
v -2 0 -2
v -2 0.1 -1.9
v -2 0.1 -2
v -2 0.3 -1.9
v -2 0.3 -2
v -2 0.6 -1.9
v -2 0.6 -2
v -2 0.7 -1.9
v -2 0.7 -2
v -2 0.9 -1.9
v -2 0.9 -2
v -2 1.2 -1.9
v -2 1.2 -2
v -2 1.3 -1.9
v -2 1.3 -2
v -2 1.5 -1.9
v -2 1.5 -2
v -2 1.8 -1.9
v -2 1.8 -2
v -2 1.9 -1.9
v -2 1.9 -2
v -2 2.1 -1.9
v -2 2.1 -2
v -2 2.4 -1.9
v -2 2.4 -2
v -2 2.5 -1.9
v -2 2.5 -2
v -2 2.7 -1.9
v -2 2.7 -2
v -2 3 -1.9
v -2 3 -2
v -2 3.1 -1.9
v -2 3.1 -2
v -2 3.3 -1.9
v -2 3.3 -2
v -2 3.6 -1.9
v -2 3.6 -2
v -2 3.7 -1.9
v -2 3.7 -2
v -2 3.9 -1.9
v -2 3.9 -2
v 2 0 -1.9
v 2 0 -2
v 2 0.1 -1.9
v 2 0.1 -2
v 2 0.3 -1.9
v 2 0.3 -2
v 2 0.6 -1.9
v 2 0.6 -2
v 2 0.7 -1.9
v 2 0.7 -2
v 2 0.9 -1.9
v 2 0.9 -2
v 2 1.2 -1.9
v 2 1.2 -2
v 2 1.3 -1.9
v 2 1.3 -2
v 2 1.5 -1.9
v 2 1.5 -2
v 2 1.8 -1.9
v 2 1.8 -2
v 2 1.9 -1.9
v 2 1.9 -2
v 2 2.1 -1.9
v 2 2.1 -2
v 2 2.4 -1.9
v 2 2.4 -2
v 2 2.5 -1.9
v 2 2.5 -2
v 2 2.7 -1.9
v 2 2.7 -2
v 2 3 -1.9
v 2 3 -2
v 2 3.1 -1.9
v 2 3.1 -2
v 2 3.3 -1.9
v 2 3.3 -2
v 2 3.6 -1.9
v 2 3.6 -2
v 2 3.7 -1.9
v 2 3.7 -2
v 2 3.9 -1.9
v 2 3.9 -2
v -2 0 -1.9
v -2 0.1 -1.9
v -2 0.3 -1.9
v -2 0.6 -1.9
v -2 0.7 -1.9
v -2 0.9 -1.9
v -2 1.2 -1.9
v -2 1.3 -1.9
v -2 1.5 -1.9
v -2 1.8 -1.9
v -2 1.9 -1.9
v -2 2.1 -1.9
v -2 2.4 -1.9
v -2 2.5 -1.9
v -2 2.7 -1.9
v -2 3 -1.9
v -2 3.1 -1.9
v -2 3.3 -1.9
v -2 3.6 -1.9
v -2 3.7 -1.9
v -2 3.9 -1.9
v 2 0 -1.9
v 2 0.1 -1.9
v 2 0.3 -1.9
v 2 0.6 -1.9
v 2 0.7 -1.9
v 2 0.9 -1.9
v 2 1.2 -1.9
v 2 1.3 -1.9
v 2 1.5 -1.9
v 2 1.8 -1.9
v 2 1.9 -1.9
v 2 2.1 -1.9
v 2 2.4 -1.9
v 2 2.5 -1.9
v 2 2.7 -1.9
v 2 3 -1.9
v 2 3.1 -1.9
v 2 3.3 -1.9
v 2 3.6 -1.9
v 2 3.7 -1.9
v 2 3.9 -1.9
v -2 0 -2
v -2 0.1 -2
v -2 0.3 -2
v -2 0.6 -2
v -2 0.7 -2
v -2 0.9 -2
v -2 1.2 -2
v -2 1.3 -2
v -2 1.5 -2
v -2 1.8 -2
v -2 1.9 -2
v -2 2.1 -2
v -2 2.4 -2
v -2 2.5 -2
v -2 2.7 -2
v -2 3 -2
v -2 3.1 -2
v -2 3.3 -2
v -2 3.6 -2
v -2 3.7 -2
v -2 3.9 -2
v 2 0 -2
v 2 0.1 -2
v 2 0.3 -2
v 2 0.6 -2
v 2 0.7 -2
v 2 0.9 -2
v 2 1.2 -2
v 2 1.3 -2
v 2 1.5 -2
v 2 1.8 -2
v 2 1.9 -2
v 2 2.1 -2
v 2 2.4 -2
v 2 2.5 -2
v 2 2.7 -2
v 2 3 -2
v 2 3.1 -2
v 2 3.3 -2
v 2 3.6 -2
v 2 3.7 -2
v 2 3.9 -2
v -2 0 -1.9
v 2 0 -1.9
v -2 0 -2
v 2 0 -2
v -2 0.6 -1.9
v 2 0.6 -1.9
v -2 0.6 -2
v 2 0.6 -2
v -2 1.2 -1.9
v 2 1.2 -1.9
v -2 1.2 -2
v 2 1.2 -2
v -2 1.8 -1.9
v 2 1.8 -1.9
v -2 1.8 -2
v 2 1.8 -2
v -2 2.4 -1.9
v 2 2.4 -1.9
v -2 2.4 -2
v 2 2.4 -2
v -2 3 -1.9
v 2 3 -1.9
v -2 3 -2
v 2 3 -2
v -2 3.6 -1.9
v 2 3.6 -1.9
v -2 3.6 -2
v 2 3.6 -2
v -2 0.3 -1.9
v 2 0.3 -1.9
v -2 0.3 -2
v 2 0.3 -2
v -2 0.9 -1.9
v 2 0.9 -1.9
v -2 0.9 -2
v 2 0.9 -2
v -2 1.5 -1.9
v 2 1.5 -1.9
v -2 1.5 -2
v 2 1.5 -2
v -2 2.1 -1.9
v 2 2.1 -1.9
v -2 2.1 -2
v 2 2.1 -2
v -2 2.7 -1.9
v 2 2.7 -1.9
v -2 2.7 -2
v 2 2.7 -2
v -2 3.3 -1.9
v 2 3.3 -1.9
v -2 3.3 -2
v 2 3.3 -2
v -2 3.9 -1.9
v 2 3.9 -1.9
v -2 3.9 -2
v 2 3.9 -2

# faces
f 3/2/1 2/2/1 1/2/1
f 4/2/1 2/2/1 3/2/1
f 5/1/1 4/1/1 3/1/1
f 6/1/1 4/1/1 5/1/1
f 9/2/1 8/2/1 7/2/1
f 10/2/1 8/2/1 9/2/1
f 11/1/1 10/1/1 9/1/1
f 12/1/1 10/1/1 11/1/1
f 15/2/1 14/2/1 13/2/1
f 16/2/1 14/2/1 15/2/1
f 17/1/1 16/1/1 15/1/1
f 18/1/1 16/1/1 17/1/1
f 21/2/1 20/2/1 19/2/1
f 22/2/1 20/2/1 21/2/1
f 23/1/1 22/1/1 21/1/1
f 24/1/1 22/1/1 23/1/1
f 27/2/1 26/2/1 25/2/1
f 28/2/1 26/2/1 27/2/1
f 29/1/1 28/1/1 27/1/1
f 30/1/1 28/1/1 29/1/1
f 33/2/1 32/2/1 31/2/1
f 34/2/1 32/2/1 33/2/1
f 35/1/1 34/1/1 33/1/1
f 36/1/1 34/1/1 35/1/1
f 39/2/1 38/2/1 37/2/1
f 40/2/1 38/2/1 39/2/1
f 41/1/1 40/1/1 39/1/1
f 42/1/1 40/1/1 41/1/1
f 43/2/2 44/2/2 45/2/2
f 45/2/2 44/2/2 46/2/2
f 45/1/2 46/1/2 47/1/2
f 47/1/2 46/1/2 48/1/2
f 49/2/2 50/2/2 51/2/2
f 51/2/2 50/2/2 52/2/2
f 51/1/2 52/1/2 53/1/2
f 53/1/2 52/1/2 54/1/2
f 55/2/2 56/2/2 57/2/2
f 57/2/2 56/2/2 58/2/2
f 57/1/2 58/1/2 59/1/2
f 59/1/2 58/1/2 60/1/2
f 61/2/2 62/2/2 63/2/2
f 63/2/2 62/2/2 64/2/2
f 63/1/2 64/1/2 65/1/2
f 65/1/2 64/1/2 66/1/2
f 67/2/2 68/2/2 69/2/2
f 69/2/2 68/2/2 70/2/2
f 69/1/2 70/1/2 71/1/2
f 71/1/2 70/1/2 72/1/2
f 73/2/2 74/2/2 75/2/2
f 75/2/2 74/2/2 76/2/2
f 75/1/2 76/1/2 77/1/2
f 77/1/2 76/1/2 78/1/2
f 79/2/2 80/2/2 81/2/2
f 81/2/2 80/2/2 82/2/2
f 81/1/2 82/1/2 83/1/2
f 83/1/2 82/1/2 84/1/2
f 106/2/3 86/2/3 85/2/3
f 107/1/3 87/1/3 86/1/3
f 107/2/3 86/2/3 106/2/3
f 108/1/3 87/1/3 107/1/3
f 109/2/3 89/2/3 88/2/3
f 110/1/3 90/1/3 89/1/3
f 110/2/3 89/2/3 109/2/3
f 111/1/3 90/1/3 110/1/3
f 112/2/3 92/2/3 91/2/3
f 113/1/3 93/1/3 92/1/3
f 113/2/3 92/2/3 112/2/3
f 114/1/3 93/1/3 113/1/3
f 115/2/3 95/2/3 94/2/3
f 116/1/3 96/1/3 95/1/3
f 116/2/3 95/2/3 115/2/3
f 117/1/3 96/1/3 116/1/3
f 118/2/3 98/2/3 97/2/3
f 119/1/3 99/1/3 98/1/3
f 119/2/3 98/2/3 118/2/3
f 120/1/3 99/1/3 119/1/3
f 121/2/3 101/2/3 100/2/3
f 122/1/3 102/1/3 101/1/3
f 122/2/3 101/2/3 121/2/3
f 123/1/3 102/1/3 122/1/3
f 124/2/3 104/2/3 103/2/3
f 125/1/3 105/1/3 104/1/3
f 125/2/3 104/2/3 124/2/3
f 126/1/3 105/1/3 125/1/3
f 127/2/4 128/2/4 148/2/4
f 128/1/4 129/1/4 149/1/4
f 148/2/4 128/2/4 149/2/4
f 149/1/4 129/1/4 150/1/4
f 130/2/4 131/2/4 151/2/4
f 131/1/4 132/1/4 152/1/4
f 151/2/4 131/2/4 152/2/4
f 152/1/4 132/1/4 153/1/4
f 133/2/4 134/2/4 154/2/4
f 134/1/4 135/1/4 155/1/4
f 154/2/4 134/2/4 155/2/4
f 155/1/4 135/1/4 156/1/4
f 136/2/4 137/2/4 157/2/4
f 137/1/4 138/1/4 158/1/4
f 157/2/4 137/2/4 158/2/4
f 158/1/4 138/1/4 159/1/4
f 139/2/4 140/2/4 160/2/4
f 140/1/4 141/1/4 161/1/4
f 160/2/4 140/2/4 161/2/4
f 161/1/4 141/1/4 162/1/4
f 142/2/4 143/2/4 163/2/4
f 143/1/4 144/1/4 164/1/4
f 163/2/4 143/2/4 164/2/4
f 164/1/4 144/1/4 165/1/4
f 145/2/4 146/2/4 166/2/4
f 146/1/4 147/1/4 167/1/4
f 166/2/4 146/2/4 167/2/4
f 167/1/4 147/1/4 168/1/4
f 171/2/5 170/2/5 169/2/5
f 172/2/5 170/2/5 171/2/5
f 175/2/5 174/2/5 173/2/5
f 176/2/5 174/2/5 175/2/5
f 179/2/5 178/2/5 177/2/5
f 180/2/5 178/2/5 179/2/5
f 183/2/5 182/2/5 181/2/5
f 184/2/5 182/2/5 183/2/5
f 187/2/5 186/2/5 185/2/5
f 188/2/5 186/2/5 187/2/5
f 191/2/5 190/2/5 189/2/5
f 192/2/5 190/2/5 191/2/5
f 195/2/5 194/2/5 193/2/5
f 196/2/5 194/2/5 195/2/5
f 197/1/6 198/1/6 199/1/6
f 199/1/6 198/1/6 200/1/6
f 201/1/6 202/1/6 203/1/6
f 203/1/6 202/1/6 204/1/6
f 205/1/6 206/1/6 207/1/6
f 207/1/6 206/1/6 208/1/6
f 209/1/6 210/1/6 211/1/6
f 211/1/6 210/1/6 212/1/6
f 213/1/6 214/1/6 215/1/6
f 215/1/6 214/1/6 216/1/6
f 217/1/6 218/1/6 219/1/6
f 219/1/6 218/1/6 220/1/6
f 221/1/6 222/1/6 223/1/6
f 223/1/6 222/1/6 224/1/6
