# MagicaVoxel @ Ephtracy

# group
o 

# material
mtllib wooden ball.mtl
usemtl palette

# normals
vn -1 0 0
vn 1 0 0
vn 0 0 1
vn 0 0 -1
vn 0 -1 0
vn 0 1 0

# texcoords
vt 0.232422 0.5
vt 0.537109 0.5

# verts
v -0.8 0.4 0
v -0.8 0.4 -0.4
v -0.8 0.5 0
v -0.8 0.5 -0.1
v -0.8 0.7 0
v -0.8 0.7 -0.1
v -0.8 0.8 0
v -0.8 0.8 -0.4
v -0.7 0.3 0.1
v -0.7 0.3 -0.5
v -0.7 0.4 0
v -0.7 0.4 -0.4
v -0.7 0.5 0.1
v -0.7 0.5 0
v -0.7 0.5 -0.1
v -0.7 0.7 0.1
v -0.7 0.7 0
v -0.7 0.7 -0.1
v -0.7 0.8 0
v -0.7 0.8 -0.4
v -0.7 0.9 0.1
v -0.7 0.9 -0.5
v -0.6 0.2 0.2
v -0.6 0.2 -0.1
v -0.6 0.2 -0.3
v -0.6 0.2 -0.6
v -0.6 0.3 0.1
v -0.6 0.3 -0.1
v -0.6 0.3 -0.3
v -0.6 0.3 -0.5
v -0.6 0.5 0.2
v -0.6 0.5 0.1
v -0.6 0.5 0
v -0.6 0.6 0.2
v -0.6 0.6 0.1
v -0.6 0.6 0
v -0.6 0.7 0.1
v -0.6 0.7 0
v -0.6 0.9 0.1
v -0.6 0.9 -0.1
v -0.6 0.9 -0.2
v -0.6 0.9 -0.5
v -0.6 1 0.2
v -0.6 1 -0.1
v -0.6 1 -0.2
v -0.6 1 -0.6
v -0.5 0.1 0.1
v -0.5 0.1 -0.5
v -0.5 0.2 0.1
v -0.5 0.2 -0.1
v -0.5 0.2 -0.3
v -0.5 0.2 -0.5
v -0.5 0.3 0.3
v -0.5 0.3 0.2
v -0.5 0.3 -0.1
v -0.5 0.3 -0.2
v -0.5 0.3 -0.3
v -0.5 0.3 -0.6
v -0.5 0.3 -0.7
v -0.5 0.5 0.2
v -0.5 0.5 0.1
v -0.5 0.6 0.2
v -0.5 0.6 0.1
v -0.5 0.9 0.3
v -0.5 0.9 0.2
v -0.5 0.9 -0.1
v -0.5 0.9 -0.2
v -0.5 0.9 -0.6
v -0.5 0.9 -0.7
v -0.5 1 0.1
v -0.5 1 -0.1
v -0.5 1 -0.2
v -0.5 1 -0.5
v -0.5 1.1 0.1
v -0.5 1.1 -0.5
v -0.4 0 0
v -0.4 0 -0.4
v -0.4 0.1 0
v -0.4 0.1 -0.4
v -0.4 0.4 0.4
v -0.4 0.4 0.3
v -0.4 0.4 -0.7
v -0.4 0.4 -0.8
v -0.4 0.8 0.4
v -0.4 0.8 0.3
v -0.4 0.8 -0.7
v -0.4 0.8 -0.8
v -0.4 1.1 0
v -0.4 1.1 -0.4
v -0.4 1.2 0
v -0.4 1.2 -0.4
v -0.2 0 -0.2
v -0.2 0 -0.3
v -0.2 0.1 -0.2
v -0.2 0.1 -0.3
v -0.2 0.1 -0.4
v -0.2 0.1 -0.5
v -0.2 0.2 -0.4
v -0.2 0.2 -0.5
v -0.2 0.2 -0.6
v -0.2 0.3 -0.5
v -0.2 0.3 -0.6
v -0.2 1.1 -0.1
v -0.2 1.1 -0.2
v -0.2 1.2 -0.1
v -0.2 1.2 -0.2
v -0.1 0.8 0.3
v -0.1 0.8 0.2
v -0.1 0.9 0.3
v -0.1 0.9 0.2
v 0 0.9 0.2
v 0 0.9 0.1
v 0 1 0.2
v 0 1 0.1
v 0 1 0
v 0 1.1 0.1
v 0 1.1 0
v -0.3 0 -0.2
v -0.3 0 -0.3
v -0.3 0.1 -0.2
v -0.3 0.1 -0.3
v -0.3 0.1 -0.4
v -0.3 0.1 -0.5
v -0.3 0.2 -0.4
v -0.3 0.2 -0.5
v -0.3 0.2 -0.6
v -0.3 0.3 -0.5
v -0.3 0.3 -0.6
v -0.3 1.1 -0.1
v -0.3 1.1 -0.2
v -0.3 1.2 -0.1
v -0.3 1.2 -0.2
v -0.2 0.8 0.3
v -0.2 0.8 0.2
v -0.2 0.9 0.3
v -0.2 0.9 0.2
v -0.2 0.9 0.1
v -0.2 1 0.2
v -0.2 1 0.1
v -0.1 0.4 -0.7
v -0.1 0.4 -0.8
v -0.1 0.5 -0.7
v -0.1 0.5 -0.8
v -0.1 1 0.1
v -0.1 1 0
v -0.1 1.1 0.1
v -0.1 1.1 0
v 0 0 0
v 0 0 -0.4
v 0 0.1 0.1
v 0 0.1 0
v 0 0.1 -0.4
v 0 0.2 0.1
v 0 0.2 0
v 0 0.4 0.4
v 0 0.4 0.3
v 0 0.4 -0.6
v 0 0.4 -0.7
v 0 0.5 0.3
v 0 0.5 0.2
v 0 0.5 -0.6
v 0 0.5 -0.7
v 0 0.5 -0.8
v 0 0.6 0.3
v 0 0.6 0.2
v 0 0.8 0.4
v 0 0.8 0.3
v 0 0.8 -0.7
v 0 0.8 -0.8
v 0 1.1 0
v 0 1.1 -0.4
v 0 1.2 0
v 0 1.2 -0.4
v 0.1 0.1 0
v 0.1 0.1 -0.5
v 0.1 0.2 0.2
v 0.1 0.2 0
v 0.1 0.2 -0.5
v 0.1 0.3 0.3
v 0.1 0.3 0.2
v 0.1 0.3 0
v 0.1 0.3 -0.6
v 0.1 0.3 -0.7
v 0.1 0.4 -0.6
v 0.1 0.4 -0.7
v 0.1 0.5 0.3
v 0.1 0.5 0.2
v 0.1 0.5 0.1
v 0.1 0.5 -0.6
v 0.1 0.5 -0.7
v 0.1 0.6 0.3
v 0.1 0.6 0.2
v 0.1 0.6 0.1
v 0.1 0.9 0.3
v 0.1 0.9 0.2
v 0.1 0.9 -0.6
v 0.1 0.9 -0.7
v 0.1 1 0.1
v 0.1 1 -0.5
v 0.1 1.1 0.1
v 0.1 1.1 -0.5
v 0.2 0.2 0
v 0.2 0.2 -0.6
v 0.2 0.3 0.2
v 0.2 0.3 0.1
v 0.2 0.3 0
v 0.2 0.3 -0.5
v 0.2 0.5 0.2
v 0.2 0.5 0.1
v 0.2 0.6 0.2
v 0.2 0.6 0.1
v 0.2 0.9 0.1
v 0.2 0.9 -0.5
v 0.2 1 0.2
v 0.2 1 -0.6
v 0.3 0.3 0.1
v 0.3 0.3 -0.5
v 0.3 0.4 0
v 0.3 0.4 -0.4
v 0.3 0.8 0
v 0.3 0.8 -0.4
v 0.3 0.9 0.1
v 0.3 0.9 -0.5
v 0.4 0.4 0
v 0.4 0.4 -0.4
v 0.4 0.8 0
v 0.4 0.8 -0.4
v -0.4 0.4 0.4
v -0.4 0.8 0.4
v 0 0.4 0.4
v 0 0.8 0.4
v -0.5 0.3 0.3
v -0.5 0.9 0.3
v -0.4 0.4 0.3
v -0.4 0.8 0.3
v -0.2 0.8 0.3
v -0.2 0.9 0.3
v -0.1 0.8 0.3
v -0.1 0.9 0.3
v 0 0.4 0.3
v 0 0.5 0.3
v 0 0.6 0.3
v 0 0.8 0.3
v 0.1 0.3 0.3
v 0.1 0.5 0.3
v 0.1 0.6 0.3
v 0.1 0.9 0.3
v -0.6 0.2 0.2
v -0.6 0.5 0.2
v -0.6 0.6 0.2
v -0.6 1 0.2
v -0.5 0.3 0.2
v -0.5 0.5 0.2
v -0.5 0.6 0.2
v -0.5 0.9 0.2
v -0.2 0.8 0.2
v -0.2 0.9 0.2
v -0.2 1 0.2
v -0.1 0.8 0.2
v -0.1 0.9 0.2
v 0 0.5 0.2
v 0 0.6 0.2
v 0 0.9 0.2
v 0 1 0.2
v 0.1 0.2 0.2
v 0.1 0.3 0.2
v 0.1 0.5 0.2
v 0.1 0.6 0.2
v 0.1 0.9 0.2
v 0.2 0.3 0.2
v 0.2 0.5 0.2
v 0.2 0.6 0.2
v 0.2 1 0.2
v -0.7 0.3 0.1
v -0.7 0.5 0.1
v -0.7 0.7 0.1
v -0.7 0.9 0.1
v -0.6 0.3 0.1
v -0.6 0.5 0.1
v -0.6 0.6 0.1
v -0.6 0.7 0.1
v -0.6 0.9 0.1
v -0.5 0.1 0.1
v -0.5 0.2 0.1
v -0.5 0.5 0.1
v -0.5 0.6 0.1
v -0.5 1 0.1
v -0.5 1.1 0.1
v -0.2 0.9 0.1
v -0.2 1 0.1
v -0.1 0.9 0.1
v -0.1 1 0.1
v -0.1 1.1 0.1
v 0 0.1 0.1
v 0 0.2 0.1
v 0 0.9 0.1
v 0 1 0.1
v 0 1.1 0.1
v 0.1 0.5 0.1
v 0.1 0.6 0.1
v 0.1 1 0.1
v 0.1 1.1 0.1
v 0.2 0.3 0.1
v 0.2 0.5 0.1
v 0.2 0.6 0.1
v 0.2 0.9 0.1
v 0.3 0.3 0.1
v 0.3 0.9 0.1
v -0.8 0.4 0
v -0.8 0.5 0
v -0.8 0.7 0
v -0.8 0.8 0
v -0.7 0.4 0
v -0.7 0.5 0
v -0.7 0.7 0
v -0.7 0.8 0
v -0.6 0.5 0
v -0.6 0.6 0
v -0.6 0.7 0
v -0.4 0 0
v -0.4 0.1 0
v -0.4 1.1 0
v -0.4 1.2 0
v -0.1 1 0
v -0.1 1.1 0
v 0 0 0
v 0 0.1 0
v 0 0.2 0
v 0 1 0
v 0 1.1 0
v 0 1.2 0
v 0.1 0.1 0
v 0.1 0.2 0
v 0.1 0.3 0
v 0.2 0.2 0
v 0.2 0.3 0
v 0.3 0.4 0
v 0.3 0.8 0
v 0.4 0.4 0
v 0.4 0.8 0
v -0.8 0.5 -0.1
v -0.8 0.7 -0.1
v -0.7 0.5 -0.1
v -0.7 0.7 -0.1
v -0.6 0.9 -0.2
v -0.6 1 -0.2
v -0.5 0.9 -0.2
v -0.5 1 -0.2
v -0.3 1.1 -0.2
v -0.3 1.2 -0.2
v -0.2 1.1 -0.2
v -0.2 1.2 -0.2
v -0.6 0.2 -0.3
v -0.6 0.3 -0.3
v -0.5 0.2 -0.3
v -0.5 0.3 -0.3
v -0.3 0 -0.3
v -0.3 0.1 -0.3
v -0.2 0 -0.3
v -0.2 0.1 -0.3
v -0.6 0.2 -0.1
v -0.6 0.3 -0.1
v -0.6 0.9 -0.1
v -0.6 1 -0.1
v -0.5 0.2 -0.1
v -0.5 0.3 -0.1
v -0.5 0.9 -0.1
v -0.5 1 -0.1
v -0.3 1.1 -0.1
v -0.3 1.2 -0.1
v -0.2 1.1 -0.1
v -0.2 1.2 -0.1
v -0.3 0 -0.2
v -0.3 0.1 -0.2
v -0.2 0 -0.2
v -0.2 0.1 -0.2
v -0.8 0.4 -0.4
v -0.8 0.8 -0.4
v -0.7 0.4 -0.4
v -0.7 0.8 -0.4
v -0.4 0 -0.4
v -0.4 0.1 -0.4
v -0.4 1.1 -0.4
v -0.4 1.2 -0.4
v -0.3 0.1 -0.4
v -0.3 0.2 -0.4
v -0.2 0.1 -0.4
v -0.2 0.2 -0.4
v 0 0 -0.4
v 0 0.1 -0.4
v 0 1.1 -0.4
v 0 1.2 -0.4
v 0.3 0.4 -0.4
v 0.3 0.8 -0.4
v 0.4 0.4 -0.4
v 0.4 0.8 -0.4
v -0.7 0.3 -0.5
v -0.7 0.9 -0.5
v -0.6 0.3 -0.5
v -0.6 0.9 -0.5
v -0.5 0.1 -0.5
v -0.5 0.2 -0.5
v -0.5 1 -0.5
v -0.5 1.1 -0.5
v -0.3 0.1 -0.5
v -0.3 0.2 -0.5
v -0.3 0.3 -0.5
v -0.2 0.1 -0.5
v -0.2 0.2 -0.5
v -0.2 0.3 -0.5
v 0.1 0.1 -0.5
v 0.1 0.2 -0.5
v 0.1 1 -0.5
v 0.1 1.1 -0.5
v 0.2 0.3 -0.5
v 0.2 0.9 -0.5
v 0.3 0.3 -0.5
v 0.3 0.9 -0.5
v -0.6 0.2 -0.6
v -0.6 1 -0.6
v -0.5 0.3 -0.6
v -0.5 0.9 -0.6
v -0.3 0.2 -0.6
v -0.3 0.3 -0.6
v -0.2 0.2 -0.6
v -0.2 0.3 -0.6
v 0 0.4 -0.6
v 0 0.5 -0.6
v 0.1 0.3 -0.6
v 0.1 0.4 -0.6
v 0.1 0.5 -0.6
v 0.1 0.9 -0.6
v 0.2 0.2 -0.6
v 0.2 1 -0.6
v -0.5 0.3 -0.7
v -0.5 0.9 -0.7
v -0.4 0.4 -0.7
v -0.4 0.8 -0.7
v -0.1 0.4 -0.7
v -0.1 0.5 -0.7
v 0 0.4 -0.7
v 0 0.5 -0.7
v 0 0.8 -0.7
v 0.1 0.3 -0.7
v 0.1 0.4 -0.7
v 0.1 0.5 -0.7
v 0.1 0.9 -0.7
v -0.4 0.4 -0.8
v -0.4 0.8 -0.8
v -0.1 0.4 -0.8
v -0.1 0.5 -0.8
v 0 0.5 -0.8
v 0 0.8 -0.8
v -0.4 0 0
v 0 0 0
v -0.3 0 -0.2
v -0.2 0 -0.2
v -0.3 0 -0.3
v -0.2 0 -0.3
v -0.4 0 -0.4
v 0 0 -0.4
v -0.5 0.1 0.1
v 0 0.1 0.1
v -0.4 0.1 0
v 0 0.1 0
v 0.1 0.1 0
v -0.3 0.1 -0.2
v -0.2 0.1 -0.2
v -0.3 0.1 -0.3
v -0.2 0.1 -0.3
v -0.4 0.1 -0.4
v -0.3 0.1 -0.4
v -0.2 0.1 -0.4
v 0 0.1 -0.4
v -0.5 0.1 -0.5
v -0.3 0.1 -0.5
v -0.2 0.1 -0.5
v 0.1 0.1 -0.5
v -0.6 0.2 0.2
v 0.1 0.2 0.2
v -0.5 0.2 0.1
v 0 0.2 0.1
v 0 0.2 0
v 0.1 0.2 0
v 0.2 0.2 0
v -0.6 0.2 -0.1
v -0.5 0.2 -0.1
v -0.6 0.2 -0.3
v -0.5 0.2 -0.3
v -0.3 0.2 -0.4
v -0.2 0.2 -0.4
v -0.5 0.2 -0.5
v -0.3 0.2 -0.5
v -0.2 0.2 -0.5
v 0.1 0.2 -0.5
v -0.6 0.2 -0.6
v -0.3 0.2 -0.6
v -0.2 0.2 -0.6
v 0.2 0.2 -0.6
v -0.5 0.3 0.3
v 0.1 0.3 0.3
v -0.5 0.3 0.2
v 0.1 0.3 0.2
v 0.2 0.3 0.2
v -0.7 0.3 0.1
v -0.6 0.3 0.1
v 0.2 0.3 0.1
v 0.3 0.3 0.1
v 0.1 0.3 0
v 0.2 0.3 0
v -0.6 0.3 -0.1
v -0.5 0.3 -0.1
v -0.6 0.3 -0.2
v -0.5 0.3 -0.2
v -0.6 0.3 -0.3
v -0.5 0.3 -0.3
v -0.7 0.3 -0.5
v -0.6 0.3 -0.5
v -0.3 0.3 -0.5
v -0.2 0.3 -0.5
v 0.2 0.3 -0.5
v 0.3 0.3 -0.5
v -0.5 0.3 -0.6
v -0.3 0.3 -0.6
v -0.2 0.3 -0.6
v 0.1 0.3 -0.6
v -0.5 0.3 -0.7
v 0.1 0.3 -0.7
v -0.4 0.4 0.4
v 0 0.4 0.4
v -0.4 0.4 0.3
v 0 0.4 0.3
v -0.8 0.4 0
v -0.7 0.4 0
v 0.3 0.4 0
v 0.4 0.4 0
v -0.8 0.4 -0.4
v -0.7 0.4 -0.4
v 0.3 0.4 -0.4
v 0.4 0.4 -0.4
v -0.4 0.4 -0.7
v -0.1 0.4 -0.7
v -0.4 0.4 -0.8
v -0.1 0.4 -0.8
v 0 0.5 -0.6
v 0.1 0.5 -0.6
v -0.1 0.5 -0.7
v 0 0.5 -0.7
v 0.1 0.5 -0.7
v -0.1 0.5 -0.8
v 0 0.5 -0.8
v 0 0.6 0.3
v 0.1 0.6 0.3
v -0.6 0.6 0.2
v -0.5 0.6 0.2
v 0 0.6 0.2
v 0.1 0.6 0.2
v 0.2 0.6 0.2
v -0.6 0.6 0.1
v -0.5 0.6 0.1
v 0.1 0.6 0.1
v 0.2 0.6 0.1
v -0.7 0.7 0.1
v -0.6 0.7 0.1
v -0.8 0.7 0
v -0.7 0.7 0
v -0.6 0.7 0
v -0.8 0.7 -0.1
v -0.7 0.7 -0.1
v 0 0.4 -0.6
v 0.1 0.4 -0.6
v 0 0.4 -0.7
v 0.1 0.4 -0.7
v 0 0.5 0.3
v 0.1 0.5 0.3
v -0.6 0.5 0.2
v -0.5 0.5 0.2
v 0 0.5 0.2
v 0.1 0.5 0.2
v 0.2 0.5 0.2
v -0.7 0.5 0.1
v -0.6 0.5 0.1
v -0.5 0.5 0.1
v 0.1 0.5 0.1
v 0.2 0.5 0.1
v -0.8 0.5 0
v -0.7 0.5 0
v -0.6 0.5 0
v -0.8 0.5 -0.1
v -0.7 0.5 -0.1
v -0.4 0.8 0.4
v 0 0.8 0.4
v -0.4 0.8 0.3
v -0.2 0.8 0.3
v -0.1 0.8 0.3
v 0 0.8 0.3
v -0.2 0.8 0.2
v -0.1 0.8 0.2
v -0.8 0.8 0
v -0.7 0.8 0
v 0.3 0.8 0
v 0.4 0.8 0
v -0.8 0.8 -0.4
v -0.7 0.8 -0.4
v 0.3 0.8 -0.4
v 0.4 0.8 -0.4
v -0.4 0.8 -0.7
v 0 0.8 -0.7
v -0.4 0.8 -0.8
v 0 0.8 -0.8
v -0.5 0.9 0.3
v -0.2 0.9 0.3
v -0.1 0.9 0.3
v 0.1 0.9 0.3
v -0.5 0.9 0.2
v -0.2 0.9 0.2
v -0.1 0.9 0.2
v 0 0.9 0.2
v 0.1 0.9 0.2
v -0.7 0.9 0.1
v -0.6 0.9 0.1
v -0.2 0.9 0.1
v -0.1 0.9 0.1
v 0 0.9 0.1
v 0.2 0.9 0.1
v 0.3 0.9 0.1
v -0.6 0.9 -0.1
v -0.5 0.9 -0.1
v -0.6 0.9 -0.2
v -0.5 0.9 -0.2
v -0.7 0.9 -0.5
v -0.6 0.9 -0.5
v 0.2 0.9 -0.5
v 0.3 0.9 -0.5
v -0.5 0.9 -0.6
v 0.1 0.9 -0.6
v -0.5 0.9 -0.7
v 0.1 0.9 -0.7
v -0.6 1 0.2
v -0.2 1 0.2
v 0 1 0.2
v 0.2 1 0.2
v -0.5 1 0.1
v -0.2 1 0.1
v -0.1 1 0.1
v 0 1 0.1
v 0.1 1 0.1
v -0.1 1 0
v 0 1 0
v -0.6 1 -0.1
v -0.5 1 -0.1
v -0.6 1 -0.2
v -0.5 1 -0.2
v -0.5 1 -0.5
v 0.1 1 -0.5
v -0.6 1 -0.6
v 0.2 1 -0.6
v -0.5 1.1 0.1
v -0.1 1.1 0.1
v 0 1.1 0.1
v 0.1 1.1 0.1
v -0.4 1.1 0
v -0.1 1.1 0
v 0 1.1 0
v -0.3 1.1 -0.1
v -0.2 1.1 -0.1
v -0.3 1.1 -0.2
v -0.2 1.1 -0.2
v -0.4 1.1 -0.4
v 0 1.1 -0.4
v -0.5 1.1 -0.5
v 0.1 1.1 -0.5
v -0.4 1.2 0
v 0 1.2 0
v -0.3 1.2 -0.1
v -0.2 1.2 -0.1
v -0.3 1.2 -0.2
v -0.2 1.2 -0.2
v -0.4 1.2 -0.4
v 0 1.2 -0.4

# faces
f 3/2/1 2/2/1 1/2/1
f 4/2/1 2/2/1 3/2/1
f 6/2/1 2/2/1 4/2/1
f 7/2/1 6/2/1 5/2/1
f 8/2/1 2/2/1 6/2/1
f 8/2/1 6/2/1 7/2/1
f 11/2/1 10/2/1 9/2/1
f 12/2/1 10/2/1 11/2/1
f 13/2/1 11/2/1 9/2/1
f 14/2/1 11/2/1 13/2/1
f 17/1/1 15/1/1 14/1/1
f 18/1/1 15/1/1 17/1/1
f 19/2/1 17/2/1 16/2/1
f 20/2/1 10/2/1 12/2/1
f 21/2/1 19/2/1 16/2/1
f 21/2/1 20/2/1 19/2/1
f 22/2/1 10/2/1 20/2/1
f 22/2/1 20/2/1 21/2/1
f 27/2/1 24/2/1 23/2/1
f 28/2/1 24/2/1 27/2/1
f 29/2/1 26/2/1 25/2/1
f 30/2/1 26/2/1 29/2/1
f 31/2/1 27/2/1 23/2/1
f 32/2/1 27/2/1 31/2/1
f 35/1/1 33/1/1 32/1/1
f 36/1/1 33/1/1 35/1/1
f 37/2/1 35/2/1 34/2/1
f 37/2/1 36/2/1 35/2/1
f 38/2/1 36/2/1 37/2/1
f 39/2/1 37/2/1 34/2/1
f 42/2/1 26/2/1 30/2/1
f 43/2/1 40/2/1 39/2/1
f 43/2/1 39/2/1 34/2/1
f 44/2/1 40/2/1 43/2/1
f 45/2/1 42/2/1 41/2/1
f 46/2/1 26/2/1 42/2/1
f 46/2/1 42/2/1 45/2/1
f 49/2/1 48/2/1 47/2/1
f 50/2/1 48/2/1 49/2/1
f 51/2/1 48/2/1 50/2/1
f 52/2/1 48/2/1 51/2/1
f 55/1/1 51/1/1 50/1/1
f 56/1/1 51/1/1 55/1/1
f 57/1/1 51/1/1 56/1/1
f 60/2/1 54/2/1 53/2/1
f 62/2/1 60/2/1 53/2/1
f 62/2/1 61/2/1 60/2/1
f 63/2/1 61/2/1 62/2/1
f 64/2/1 62/2/1 53/2/1
f 65/2/1 62/2/1 64/2/1
f 68/2/1 59/2/1 58/2/1
f 69/2/1 59/2/1 68/2/1
f 71/1/1 67/1/1 66/1/1
f 72/1/1 67/1/1 71/1/1
f 74/2/1 71/2/1 70/2/1
f 74/2/1 73/2/1 72/2/1
f 74/2/1 72/2/1 71/2/1
f 75/2/1 73/2/1 74/2/1
f 78/2/1 77/2/1 76/2/1
f 79/2/1 77/2/1 78/2/1
f 84/2/1 81/2/1 80/2/1
f 85/2/1 81/2/1 84/2/1
f 86/2/1 83/2/1 82/2/1
f 87/2/1 83/2/1 86/2/1
f 90/2/1 89/2/1 88/2/1
f 91/2/1 89/2/1 90/2/1
f 94/2/1 93/2/1 92/2/1
f 95/2/1 93/2/1 94/2/1
f 98/2/1 97/2/1 96/2/1
f 99/2/1 97/2/1 98/2/1
f 101/2/1 100/2/1 99/2/1
f 102/2/1 100/2/1 101/2/1
f 105/2/1 104/2/1 103/2/1
f 106/2/1 104/2/1 105/2/1
f 109/2/1 108/2/1 107/2/1
f 110/2/1 108/2/1 109/2/1
f 113/2/1 112/2/1 111/2/1
f 114/2/1 112/2/1 113/2/1
f 116/2/1 115/2/1 114/2/1
f 117/2/1 115/2/1 116/2/1
f 118/2/2 119/2/2 120/2/2
f 120/2/2 119/2/2 121/2/2
f 122/2/2 123/2/2 124/2/2
f 124/2/2 123/2/2 125/2/2
f 125/2/2 126/2/2 127/2/2
f 127/2/2 126/2/2 128/2/2
f 129/2/2 130/2/2 131/2/2
f 131/2/2 130/2/2 132/2/2
f 133/2/2 134/2/2 135/2/2
f 135/2/2 134/2/2 136/2/2
f 136/2/2 137/2/2 138/2/2
f 138/2/2 137/2/2 139/2/2
f 140/2/2 141/2/2 142/2/2
f 142/2/2 141/2/2 143/2/2
f 144/2/2 145/2/2 146/2/2
f 146/2/2 145/2/2 147/2/2
f 148/2/2 149/2/2 151/2/2
f 151/2/2 149/2/2 152/2/2
f 150/2/2 151/2/2 153/2/2
f 153/2/2 151/2/2 154/2/2
f 155/2/2 156/2/2 159/2/2
f 157/1/2 158/1/2 161/1/2
f 161/1/2 158/1/2 162/1/2
f 159/2/2 160/2/2 164/2/2
f 155/2/2 159/2/2 164/2/2
f 164/2/2 160/2/2 165/2/2
f 155/2/2 164/2/2 166/2/2
f 166/2/2 164/2/2 167/2/2
f 162/2/2 163/2/2 168/2/2
f 168/2/2 163/2/2 169/2/2
f 170/2/2 171/2/2 172/2/2
f 172/2/2 171/2/2 173/2/2
f 174/2/2 175/2/2 177/2/2
f 177/2/2 175/2/2 178/2/2
f 176/2/2 177/2/2 180/2/2
f 180/2/2 177/2/2 181/2/2
f 182/2/2 183/2/2 184/2/2
f 184/2/2 183/2/2 185/2/2
f 179/2/2 180/2/2 186/2/2
f 186/2/2 180/2/2 187/2/2
f 187/1/2 188/1/2 192/1/2
f 192/1/2 188/1/2 193/1/2
f 191/2/2 192/2/2 194/2/2
f 194/2/2 192/2/2 195/2/2
f 189/2/2 190/2/2 196/2/2
f 196/2/2 190/2/2 197/2/2
f 198/2/2 199/2/2 200/2/2
f 200/2/2 199/2/2 201/2/2
f 202/2/2 203/2/2 206/2/2
f 206/2/2 203/2/2 207/2/2
f 204/2/2 205/2/2 208/2/2
f 208/2/2 205/2/2 209/2/2
f 210/2/2 211/2/2 212/2/2
f 207/2/2 203/2/2 213/2/2
f 210/2/2 212/2/2 214/2/2
f 212/2/2 213/2/2 214/2/2
f 213/2/2 203/2/2 215/2/2
f 214/2/2 213/2/2 215/2/2
f 216/2/2 217/2/2 218/2/2
f 218/2/2 217/2/2 219/2/2
f 216/2/2 218/2/2 220/2/2
f 219/2/2 217/2/2 221/2/2
f 216/2/2 220/2/2 222/2/2
f 220/2/2 221/2/2 222/2/2
f 221/2/2 217/2/2 223/2/2
f 222/2/2 221/2/2 223/2/2
f 224/2/2 225/2/2 226/2/2
f 226/2/2 225/2/2 227/2/2
f 230/2/3 229/2/3 228/2/3
f 231/2/3 229/2/3 230/2/3
f 234/2/3 233/2/3 232/2/3
f 235/2/3 233/2/3 234/2/3
f 236/2/3 233/2/3 235/2/3
f 237/2/3 233/2/3 236/2/3
f 240/2/3 234/2/3 232/2/3
f 243/2/3 239/2/3 238/2/3
f 244/2/3 241/2/3 240/2/3
f 244/2/3 240/2/3 232/2/3
f 245/2/3 241/2/3 244/2/3
f 246/2/3 243/2/3 242/2/3
f 247/2/3 239/2/3 243/2/3
f 247/2/3 243/2/3 246/2/3
f 252/2/3 249/2/3 248/2/3
f 253/2/3 249/2/3 252/2/3
f 254/2/3 251/2/3 250/2/3
f 255/2/3 251/2/3 254/2/3
f 257/2/3 251/2/3 255/2/3
f 258/2/3 251/2/3 257/2/3
f 259/1/3 257/1/3 256/1/3
f 260/1/3 257/1/3 259/1/3
f 265/2/3 252/2/3 248/2/3
f 266/2/3 252/2/3 265/2/3
f 267/1/3 262/1/3 261/1/3
f 268/1/3 262/1/3 267/1/3
f 269/2/3 264/2/3 263/2/3
f 270/2/3 267/2/3 266/2/3
f 271/2/3 267/2/3 270/2/3
f 272/2/3 269/2/3 268/2/3
f 273/2/3 264/2/3 269/2/3
f 273/2/3 269/2/3 272/2/3
f 278/2/3 275/2/3 274/2/3
f 279/2/3 275/2/3 278/2/3
f 281/2/3 277/2/3 276/2/3
f 282/2/3 277/2/3 281/2/3
f 285/1/3 280/1/3 279/1/3
f 286/1/3 280/1/3 285/1/3
f 290/2/3 288/2/3 287/2/3
f 291/2/3 290/2/3 289/2/3
f 292/2/3 288/2/3 290/2/3
f 292/2/3 290/2/3 291/2/3
f 293/2/3 288/2/3 292/2/3
f 294/2/3 284/2/3 283/2/3
f 295/2/3 284/2/3 294/2/3
f 296/1/3 292/1/3 291/1/3
f 297/1/3 292/1/3 296/1/3
f 301/2/3 298/2/3 297/2/3
f 302/2/3 298/2/3 301/2/3
f 304/1/3 300/1/3 299/1/3
f 305/1/3 300/1/3 304/1/3
f 307/2/3 304/2/3 303/2/3
f 307/2/3 306/2/3 305/2/3
f 307/2/3 305/2/3 304/2/3
f 308/2/3 306/2/3 307/2/3
f 313/2/3 310/2/3 309/2/3
f 314/2/3 310/2/3 313/2/3
f 315/2/3 312/2/3 311/2/3
f 316/2/3 312/2/3 315/2/3
f 317/1/3 315/1/3 314/1/3
f 318/1/3 315/1/3 317/1/3
f 319/1/3 315/1/3 318/1/3
f 325/2/3 323/2/3 322/2/3
f 326/2/3 321/2/3 320/2/3
f 327/2/3 321/2/3 326/2/3
f 329/2/3 325/2/3 324/2/3
f 330/2/3 323/2/3 325/2/3
f 330/2/3 325/2/3 329/2/3
f 331/2/3 323/2/3 330/2/3
f 332/2/3 328/2/3 327/2/3
f 333/2/3 328/2/3 332/2/3
f 335/2/3 334/2/3 333/2/3
f 336/2/3 334/2/3 335/2/3
f 339/2/3 338/2/3 337/2/3
f 340/2/3 338/2/3 339/2/3
f 343/2/3 342/2/3 341/2/3
f 344/2/3 342/2/3 343/2/3
f 347/2/3 346/2/3 345/2/3
f 348/2/3 346/2/3 347/2/3
f 351/2/3 350/2/3 349/2/3
f 352/2/3 350/2/3 351/2/3
f 355/2/3 354/2/3 353/2/3
f 356/2/3 354/2/3 355/2/3
f 359/2/3 358/2/3 357/2/3
f 360/2/3 358/2/3 359/2/3
f 361/2/4 362/2/4 365/2/4
f 365/2/4 362/2/4 366/2/4
f 363/2/4 364/2/4 367/2/4
f 367/2/4 364/2/4 368/2/4
f 369/2/4 370/2/4 371/2/4
f 371/2/4 370/2/4 372/2/4
f 373/2/4 374/2/4 375/2/4
f 375/2/4 374/2/4 376/2/4
f 377/2/4 378/2/4 379/2/4
f 379/2/4 378/2/4 380/2/4
f 381/2/4 382/2/4 385/2/4
f 381/2/4 385/2/4 387/2/4
f 385/1/4 386/1/4 387/1/4
f 387/1/4 386/1/4 388/1/4
f 381/2/4 387/2/4 389/2/4
f 389/2/4 387/2/4 390/2/4
f 383/2/4 384/2/4 391/2/4
f 391/2/4 384/2/4 392/2/4
f 393/2/4 394/2/4 395/2/4
f 395/2/4 394/2/4 396/2/4
f 397/2/4 398/2/4 399/2/4
f 399/2/4 398/2/4 400/2/4
f 401/2/4 402/2/4 405/2/4
f 405/2/4 402/2/4 406/2/4
f 406/1/4 407/1/4 409/1/4
f 409/1/4 407/1/4 410/1/4
f 408/2/4 409/2/4 411/2/4
f 411/2/4 409/2/4 412/2/4
f 403/2/4 404/2/4 413/2/4
f 413/2/4 404/2/4 414/2/4
f 415/2/4 416/2/4 417/2/4
f 417/2/4 416/2/4 418/2/4
f 419/2/4 420/2/4 421/2/4
f 421/2/4 420/2/4 422/2/4
f 419/2/4 421/2/4 423/2/4
f 423/2/4 421/2/4 424/2/4
f 425/2/4 426/2/4 429/2/4
f 427/1/4 428/1/4 430/1/4
f 430/1/4 428/1/4 431/1/4
f 422/2/4 420/2/4 432/2/4
f 430/2/4 431/2/4 433/2/4
f 431/2/4 432/2/4 433/2/4
f 425/2/4 429/2/4 433/2/4
f 429/2/4 430/2/4 433/2/4
f 432/2/4 420/2/4 434/2/4
f 433/2/4 432/2/4 434/2/4
f 435/2/4 436/2/4 437/2/4
f 437/2/4 436/2/4 438/2/4
f 435/2/4 437/2/4 439/2/4
f 435/2/4 439/2/4 441/2/4
f 439/1/4 440/1/4 441/1/4
f 441/1/4 440/1/4 442/1/4
f 438/2/4 436/2/4 443/2/4
f 435/2/4 441/2/4 444/2/4
f 444/2/4 441/2/4 445/2/4
f 442/2/4 443/2/4 446/2/4
f 443/2/4 436/2/4 447/2/4
f 446/2/4 443/2/4 447/2/4
f 448/2/4 449/2/4 450/2/4
f 450/2/4 449/2/4 451/2/4
f 451/2/4 449/2/4 452/2/4
f 452/2/4 449/2/4 453/2/4
f 456/2/5 455/2/5 454/2/5
f 457/2/5 455/2/5 456/2/5
f 458/2/5 456/2/5 454/2/5
f 459/2/5 455/2/5 457/2/5
f 460/2/5 458/2/5 454/2/5
f 460/2/5 459/2/5 458/2/5
f 461/2/5 455/2/5 459/2/5
f 461/2/5 459/2/5 460/2/5
f 464/2/5 463/2/5 462/2/5
f 465/2/5 463/2/5 464/2/5
f 469/1/5 468/1/5 467/1/5
f 470/1/5 468/1/5 469/1/5
f 471/2/5 464/2/5 462/2/5
f 474/2/5 466/2/5 465/2/5
f 475/2/5 472/2/5 471/2/5
f 475/2/5 471/2/5 462/2/5
f 476/2/5 472/2/5 475/2/5
f 477/2/5 474/2/5 473/2/5
f 478/2/5 466/2/5 474/2/5
f 478/2/5 474/2/5 477/2/5
f 481/2/5 480/2/5 479/2/5
f 482/2/5 480/2/5 481/2/5
f 483/2/5 480/2/5 482/2/5
f 484/2/5 480/2/5 483/2/5
f 486/2/5 481/2/5 479/2/5
f 487/2/5 481/2/5 486/2/5
f 492/2/5 489/2/5 488/2/5
f 493/1/5 491/1/5 490/1/5
f 494/1/5 491/1/5 493/1/5
f 495/2/5 485/2/5 484/2/5
f 496/2/5 492/2/5 488/2/5
f 496/2/5 493/2/5 492/2/5
f 497/2/5 493/2/5 496/2/5
f 498/2/5 495/2/5 494/2/5
f 499/2/5 485/2/5 495/2/5
f 499/2/5 495/2/5 498/2/5
f 502/2/5 501/2/5 500/2/5
f 503/2/5 501/2/5 502/2/5
f 507/2/5 504/2/5 503/2/5
f 509/2/5 507/2/5 503/2/5
f 509/2/5 508/2/5 507/2/5
f 510/2/5 508/2/5 509/2/5
f 511/2/5 506/2/5 505/2/5
f 513/2/5 511/2/5 505/2/5
f 513/1/5 512/1/5 511/1/5
f 514/1/5 512/1/5 513/1/5
f 515/2/5 513/2/5 505/2/5
f 515/2/5 514/2/5 513/2/5
f 516/2/5 514/2/5 515/2/5
f 517/2/5 515/2/5 505/2/5
f 518/2/5 515/2/5 517/2/5
f 521/2/5 508/2/5 510/2/5
f 522/2/5 508/2/5 521/2/5
f 524/1/5 520/1/5 519/1/5
f 525/1/5 520/1/5 524/1/5
f 527/2/5 524/2/5 523/2/5
f 527/2/5 526/2/5 525/2/5
f 527/2/5 525/2/5 524/2/5
f 528/2/5 526/2/5 527/2/5
f 531/2/5 530/2/5 529/2/5
f 532/2/5 530/2/5 531/2/5
f 537/2/5 534/2/5 533/2/5
f 538/2/5 534/2/5 537/2/5
f 539/2/5 536/2/5 535/2/5
f 540/2/5 536/2/5 539/2/5
f 543/2/5 542/2/5 541/2/5
f 544/2/5 542/2/5 543/2/5
f 548/2/5 546/2/5 545/2/5
f 549/2/5 546/2/5 548/2/5
f 550/2/5 548/2/5 547/2/5
f 551/2/5 548/2/5 550/2/5
f 556/2/5 553/2/5 552/2/5
f 557/2/5 553/2/5 556/2/5
f 559/2/5 555/2/5 554/2/5
f 560/2/5 555/2/5 559/2/5
f 561/2/5 558/2/5 557/2/5
f 562/2/5 558/2/5 561/2/5
f 566/2/5 564/2/5 563/2/5
f 567/2/5 564/2/5 566/2/5
f 568/2/5 566/2/5 565/2/5
f 569/2/5 566/2/5 568/2/5
f 570/2/6 571/2/6 572/2/6
f 572/2/6 571/2/6 573/2/6
f 574/2/6 575/2/6 578/2/6
f 578/2/6 575/2/6 579/2/6
f 576/2/6 577/2/6 582/2/6
f 582/2/6 577/2/6 583/2/6
f 579/2/6 580/2/6 584/2/6
f 584/2/6 580/2/6 585/2/6
f 581/2/6 582/2/6 587/2/6
f 587/2/6 582/2/6 588/2/6
f 586/2/6 587/2/6 589/2/6
f 589/2/6 587/2/6 590/2/6
f 591/2/6 592/2/6 593/2/6
f 593/2/6 592/2/6 594/2/6
f 594/2/6 592/2/6 595/2/6
f 595/2/6 592/2/6 596/2/6
f 594/2/6 595/2/6 597/2/6
f 597/2/6 595/2/6 598/2/6
f 599/2/6 600/2/6 603/2/6
f 603/2/6 600/2/6 604/2/6
f 601/2/6 602/2/6 605/2/6
f 605/2/6 602/2/6 606/2/6
f 607/2/6 608/2/6 609/2/6
f 609/2/6 608/2/6 610/2/6
f 611/2/6 612/2/6 615/2/6
f 615/2/6 612/2/6 616/2/6
f 613/2/6 614/2/6 617/2/6
f 617/2/6 614/2/6 618/2/6
f 618/2/6 614/2/6 619/2/6
f 616/1/6 617/1/6 622/1/6
f 617/1/6 618/1/6 622/1/6
f 622/1/6 618/1/6 623/1/6
f 623/1/6 618/1/6 624/1/6
f 620/2/6 621/2/6 627/2/6
f 620/2/6 627/2/6 629/2/6
f 627/1/6 628/1/6 629/1/6
f 629/1/6 628/1/6 630/1/6
f 620/2/6 629/2/6 631/2/6
f 631/2/6 629/2/6 632/2/6
f 625/2/6 626/2/6 633/2/6
f 633/2/6 626/2/6 634/2/6
f 635/2/6 636/2/6 637/2/6
f 637/2/6 636/2/6 638/2/6
f 639/2/6 640/2/6 643/2/6
f 643/2/6 640/2/6 644/2/6
f 641/2/6 642/2/6 646/2/6
f 646/2/6 642/2/6 647/2/6
f 645/1/6 646/1/6 648/1/6
f 648/1/6 646/1/6 649/1/6
f 639/2/6 643/2/6 650/2/6
f 650/2/6 643/2/6 651/2/6
f 652/2/6 653/2/6 654/2/6
f 647/2/6 642/2/6 655/2/6
f 652/2/6 654/2/6 656/2/6
f 654/2/6 655/2/6 656/2/6
f 655/2/6 642/2/6 657/2/6
f 656/2/6 655/2/6 657/2/6
f 658/2/6 659/2/6 662/2/6
f 662/2/6 659/2/6 663/2/6
f 660/2/6 661/2/6 664/2/6
f 665/1/6 666/1/6 667/1/6
f 667/1/6 666/1/6 668/1/6
f 658/2/6 662/2/6 669/2/6
f 664/2/6 661/2/6 670/2/6
f 658/2/6 669/2/6 671/2/6
f 669/2/6 670/2/6 671/2/6
f 670/2/6 661/2/6 672/2/6
f 671/2/6 670/2/6 672/2/6
f 673/2/6 674/2/6 675/2/6
f 675/2/6 674/2/6 676/2/6
f 673/2/6 675/2/6 677/2/6
f 676/2/6 674/2/6 678/2/6
f 673/2/6 677/2/6 679/2/6
f 677/2/6 678/2/6 679/2/6
f 678/2/6 674/2/6 680/2/6
f 679/2/6 678/2/6 680/2/6
